/* XPM */
static char *charging_bat[] = {
/* columns rows colors chars-per-pixel */
"27 15 3 1 ",
"  c None",
". c #FF6A00",
"X c white",
/* pixels */
"XXXXXXXXXXXXXXXXXXXXXXXXX  ",
"XX                     XX  ",
"X                      XX  ",
"X     ..         ..    XX  ",
"X    ....       ....   XXXX",
"X    ....       ....   XXXX",
"X     ..         ..    XX X",
"X                      XX X",
"X                      XX X",
"X     XXXXXXXXXXXXX    XXXX",
"X     XXXXXXXXXXXXX    XXXX",
"X     XXXXXXXXXXXXX    XX  ",
"X                      XX  ",
"XX                     XX  ",
"XXXXXXXXXXXXXXXXXXXXXXXXX  "
};
