/* XPM */
static char *charged_bat[] = {
/* columns rows colors chars-per-pixel */
"27 15 2 1 ",
"  c None",
". c #FF6A00",
/* pixels */
".........................  ",
"..                     ..  ",
".                      ..  ",
".     ..         ..    ..  ",
".    ....       ....   ....",
".    ....       ....   ....",
".     ..         ..    .. .",
".                      .. .",
".                      .. .",
".     ....     ....    ....",
".     .............    ....",
".      ...........     ..  ",
".                      ..  ",
"..                     ..  ",
".........................  "
};
