/* XPM */
static char *ds[] = {
/* columns rows colors chars-per-pixel */
"14 20 2 1 ",
"  c None",
". c #FF6A00",
/* pixels */
"     .  .     ",
"   . .  . .   ",
"   . .... .   ",
"  ..........  ",
"  ....  ....  ",
" .....  ..... ",
" ...      ... ",
"  .  ....  .  ",
" .  ......  . ",
" .....  ..... ",
" ..        .. ",
"  .        .  ",
"  ...    ...  ",
"  ....  ....  ",
"  ..      ..  ",
"  ...    ...  ",
"  ....  ....  ",
"   ..    ..   ",
"    ..  ..    ",
"     ....     "
};
