/* XPM */
static char *vc[] = {
/* columns rows colors chars-per-pixel */
"25 25 3 1 ",
"  c None",
". c #FF6A00",
"X c #0094FF",
/* pixels */
"      .           .      ",
"     ..     .     ..     ",
"    ...    ...    ...    ",
"    . .   .. ..   . .    ",
"   .. . .. . . .. . ..   ",
"   .  ..   . .   ..  .   ",
"   .. .    . .    . ..   ",
"   .  .    . .    .  .   ",
"   .. .....   ..... ..   ",
"   . .             . .   ",
"   ...................   ",
"     ..XXXXX XXXXX..     ",
"     ...XXX...XXX...     ",
"     .. .. . . .. ..     ",
"     ..    . .    ..     ",
"   ....  .......  ....   ",
" ..  .. ..     .. ..  .. ",
"      ... ..... ...      ",
"    .  .  . . .  .  .    ",
"    .    .     .    .    ",
"   ..               ..   ",
"   ......       ......   ",
"        ...   ...        ",
"          .....          ",
"                         "
};
