/* XPM */
static char *vc[] = {
/* columns rows colors chars-per-pixel */
"25 25 4 1 ",
"  c None",
". c #FF6A00",
"X c #0094FF",
"o c white",
/* pixels */
"      o           o      ",
"     oo     o     oo     ",
"    ooo    ooo    ooo    ",
"    o o   oo oo   o o    ",
"   oo o oo o o oo o oo   ",
"   o  oo   o o   oo  o   ",
"   oo o    o o    o oo   ",
"   o  o    o o    o  o   ",
"   oo ooooo   ooooo oo   ",
"   o o             o o   ",
"   ooo......o......ooo   ",
"     o.XXXXX XXXXX.o     ",
"     o.oXXXoooXXXo.o     ",
"     .. oo o o oo ..     ",
"     ..    o o    ..     ",
"   oo..  .......  ..oo   ",
" oo  .. ..     .. ..  oo ",
"      ... .ooo. ...      ",
"    .  .  . . .  .  .    ",
"    .    .     .    .    ",
"   ..               ..   ",
"   ......       ......   ",
"        ...   ...        ",
"          .....          ",
"                         "
};
