/* XPM */
static char *vl[] = {
/* columns rows colors chars-per-pixel */
"80 40 2 1 ",
"  c None",
". c #FF6A00",
/* pixels */
"                                                                                ",
"                                                                                ",
"                                                                                ",
"                                                                                ",
"                                                                                ",
"                                                                                ",
"                                                                                ",
"                                                                                ",
"                                                                                ",
"                                                               ....             ",
"                                                              ..  .             ",
"                                                            ...   .             ",
"                                                            .    ..             ",
"                                                           ..                   ",
"                               ....                        .                    ",
"                             ...  ..                       ....                 ",
"                           ...     ..     ....   ..         ...........         ",
"     ........             ..        .    ..  ..   ....    ......     .........  ",
"    ..      ....    ..    .        ..    .    .    .  .....                 ....",
"   ..  ..     .....  ..  ..    .  ..     .   ..     .                           ",
"   .    .        .... .   .    ....      .          ..       ....               ",
"   ..  ..          ..  .. ..             ..       ...    .....................  ",
"    ....             ..  . ..             .      ..    .... ..          ....... ",
"                       ..    .       ..   ...   ..   ...    .   ...          .. ",
"                         ...  .       ..   ......  ...      .  .  ..            ",
"                           ..  ....   . .   ..    ..        .      .            ",
"                             ..    .... .....   ...         ..     .            ",
"                               ...             ..            ..   ..            ",
"                                  .....     ....              .....             ",
"                                      .......                                   ",
"                                                                                ",
"                                                                                ",
"                                                                                ",
"                                                                                ",
"                                                                                ",
"                                                                                ",
"                                                                                ",
"                                                                                ",
"                                                                                ",
"                                                                                "
};
