/* XPM */
static char *vl[] = {
/* columns rows colors chars-per-pixel */
"80 40 3 1 ",
"  c None",
". c #FF6A00",
"X c white",
/* pixels */
"                                                                                ",
"                                                                                ",
"                                                                                ",
"                                                                                ",
"                                                                                ",
"                                                                                ",
"                                                                                ",
"                                                                                ",
"                                                                                ",
"                                                               ....             ",
"                                                              ..  .             ",
"                                                            ...   .             ",
"                                                            .    ..             ",
"                                                           ..                   ",
"                               ....                        .                    ",
"                             ...  ..                       ....                 ",
"                           ...     ..     ....   ..         ...........         ",
"     ........             ..        .    ..  ..   ....    ......XXXXX.........  ",
"    ..      ....    ..    .        ..    .         ........XXXXXXXXXXXXXXXXX....",
"   ..  ..     .....  ..  ..    .  ..     .          ....XXXXXXXXXXXXXXXXXXXXXXXX",
"   .    .        ....X.   .    ....      .          ..XXXXXXX....XXXXXXXXXXXXXXX",
"   ..  ..          ..XX.. ..             ..       ...XXXX.....................X ",
"    ....             ..XX.X..             .      ..XXXX.... ..          ....... ",
"                       ..XXXX.       ..   ...   ..XXX...    .   ...          .. ",
"                         ...XX.       ..   ......XX...      .  .  ..            ",
"                           ..XX....   ...   ..XXXX..        .      .            ",
"                             ..XXXX....X.....XXX...         ..     .            ",
"                               ...XXXXXXXXXXXXX..            ..   ..            ",
"                                  .....XXXXX....              .....             ",
"                                      .......                                   ",
"                                                                                ",
"                                                                                ",
"                                                                                ",
"                                                                                ",
"                                                                                ",
"                                                                                ",
"                                                                                ",
"                                                                                ",
"                                                                                ",
"                                                                                "
};
