/* XPM */
static char *vr[] = {
/* columns rows colors chars-per-pixel */
"80 40 3 1 ",
"  c None",
". c #FF6A00",
"X c white",
/* pixels */
"                                                                                ",
"                                                                                ",
"                                                                                ",
"                                                                                ",
"                                                                                ",
"                                                                                ",
"                                                                                ",
"                                                                                ",
"                                                                                ",
"             ....                                                               ",
"             .  ..                                                              ",
"             .   ...                                                            ",
"             ..    .                                                            ",
"                   ..                                                           ",
"                    .                        ....                               ",
"                 ....                       ..  ...                             ",
"         ...........         ..   ....     ..     ...                           ",
"  .........XXXXX......    ....   ..  ..    .        ..             ........     ",
"....XXXXXXXXXXXXXXXXX........         .    ..        .    ..    ....      ..    ",
"XXXXXXXXXXXXXXXXXXXXXXXX....          .     ..  .    ..  ..  .....     ..  ..   ",
"XXXXXXXXXXXXXXX....XXXXXXX..          .      ....    .   .X....        .    .   ",
" X.....................XXXX...       ..             .. ..XX..          ..  ..   ",
" .......          .. ....XXXX..      .             ..X.XX..             ....    ",
" ..          ...   .    ...XXX..   ...   ..       .XXXX..                       ",
"            ..  .  .      ...XX......   ..       .XX...                         ",
"            .      .        ..XXXX..   ...   ....XX..                           ",
"            .     ..         ...XXX.....X....XXXX..                             ",
"            ..   ..            ..XXXXXXXXXXXXX...                               ",
"             .....              ....XXXXX.....                                  ",
"                                   .......                                      ",
"                                                                                ",
"                                                                                ",
"                                                                                ",
"                                                                                ",
"                                                                                ",
"                                                                                ",
"                                                                                ",
"                                                                                ",
"                                                                                ",
"                                                                                "
};
