/* XPM */
static char *wireless[] = {
/* columns rows colors chars-per-pixel */
"16 16 10 1 ",
"  c None",
". c black",
"X c #010101",
"o c #020202",
"O c gray1",
"+ c #040404",
"@ c #070707",
"# c gray3",
"$ c #0B0B0B",
"% c white",
/* pixels */
"    ...XX...    ",
" ..O..%%%%..o.. ",
"+..%%%%%%%%%%..+",
".%%%%%....%%%%%.",
"%%%..........%%%",
"....%%%%%%%%....",
" O.%%%....%%%.O ",
" #............@ ",
" X+...%%%%...+X ",
"   @.%%..%%.@   ",
"   +........+   ",
"    ...%%...    ",
"     o%%%%X     ",
"     .%%%%.     ",
"     .$%%$.     ",
"      ....      "
};
